<?xml version="1.0" standalone="no"?>
<!DOCTYPE svg PUBLIC "-//W3C//DTD SVG 1.1//EN" "http://www.w3.org/Graphics/SVG/1.1/DTD/svg11.dtd" >
<!--
2013-9-30: Created.
-->
<svg>
<metadata>
Created by iconfont
</metadata>
<defs>

<font id="iconfont" horiz-adv-x="1024" >
  <font-face
    font-family="iconfont"
    font-weight="500"
    font-stretch="normal"
    units-per-em="1024"
    ascent="896"
    descent="-128"
  />
    <missing-glyph />
    
    <glyph glyph-name="x" unicode="x" horiz-adv-x="1001"
d="M281 543q-27 -1 -53 -1h-83q-18 0 -36.5 -6t-32.5 -18.5t-23 -32t-9 -45.5v-76h912v41q0 16 -0.5 30t-0.5 18q0 13 -5 29t-17 29.5t-31.5 22.5t-49.5 9h-133v-97h-438v97zM955 310v-52q0 -23 0.5 -52t0.5 -58t-10.5 -47.5t-26 -30t-33 -16t-31.5 -4.5q-14 -1 -29.5 -0.5
t-29.5 0.5h-32l-45 128h-439l-44 -128h-29h-34q-20 0 -45 1q-25 0 -41 9.5t-25.5 23t-13.5 29.5t-4 30v167h911zM163 247q-12 0 -21 -8.5t-9 -21.5t9 -21.5t21 -8.5q13 0 22 8.5t9 21.5t-9 21.5t-22 8.5zM316 123q-8 -26 -14 -48q-5 -19 -10.5 -37t-7.5 -25t-3 -15t1 -14.5
t9.5 -10.5t21.5 -4h37h67h81h80h64h36q23 0 34 12t2 38q-5 13 -9.5 30.5t-9.5 34.5q-5 19 -11 39h-368zM336 498v228q0 11 2.5 23t10 21.5t20.5 15.5t34 6h188q31 0 51.5 -14.5t20.5 -52.5v-227h-327z" />
    

    
    <glyph glyph-name="shanchu" unicode="&#58927;" d="M874.048 746.048c-199.936 199.872-524.16 199.936-724.096 0-199.936-200-199.872-524.16 0-724.096 199.936-199.872 524.096-200 724.096 0C1073.984 221.952 1073.984 546.112 874.048 746.048M191.232 63.232c-176.832 176.896-176.832 464.64 0.064 641.408s464.576 176.832 641.344 0 176.832-464.512 0-641.344C655.808-113.536 368.128-113.472 191.232 63.232M718.336 228.224 562.688 383.936l155.648 155.776c14.016 14.016 14.016 36.672 0 50.688-13.952 13.952-36.672 14.016-50.624 0L511.936 434.688 356.224 590.4c-13.952 13.952-36.608 14.016-50.624 0S291.712 553.664 305.664 539.776l155.648-155.712-155.712-155.776c-14.016-13.952-13.952-36.672 0.064-50.624 13.952-13.952 36.608-14.016 50.624-0.064l155.776 155.776 155.712-155.712c13.952-13.952 36.608-14.016 50.56 0C732.288 191.616 732.288 214.336 718.336 228.224"  horiz-adv-x="1024" />

    
    <glyph glyph-name="chilunkuai" unicode="&#58991;" d="M950.4 512 950.4 512c-68.8 4.8-121.6 60.8-121.6 128 0 20.8 4.8 40 14.4 57.6l0 0c17.6 36.8 4.8 83.2-32 104L768 827.2l0 0 0 0-41.6 24c-36.8 20.8-81.6 9.6-105.6-24l0 0c-22.4-35.2-62.4-57.6-107.2-57.6s-84.8 22.4-107.2 57.6l0 0c-24 33.6-68.8 44.8-105.6 24L256 827.2l0 0 0 0-41.6-24c-36.8-20.8-49.6-67.2-32-104l0 0c9.6-17.6 14.4-36.8 14.4-57.6 0-68.8-52.8-123.2-121.6-128l0-1.6c-41.6-3.2-73.6-36.8-73.6-80L1.6 384l0-49.6c0-41.6 33.6-76.8 73.6-80l1.6-1.6c67.2-3.2 120-59.2 120-128 0-20.8-4.8-40-14.4-57.6l0 0c-17.6-36.8-4.8-83.2 32-104l84.8-49.6c36.8-20.8 83.2-9.6 105.6 24l0 0c22.4 35.2 62.4 57.6 107.2 57.6s84.8-24 107.2-57.6l0 0c24-33.6 68.8-46.4 105.6-24l84.8 49.6c35.2 20.8 49.6 65.6 32 102.4 0 0 0 1.6-1.6 1.6-1.6 1.6-1.6 3.2-3.2 4.8l-1.6 1.6c-6.4 16-9.6 32-9.6 49.6 0 68.8 52.8 123.2 120 128l1.6 1.6c41.6 3.2 73.6 36.8 73.6 80L1020.8 384l0 49.6C1024 475.2 990.4 508.8 950.4 512zM547.2 187.2c-11.2-1.6-24-3.2-35.2-3.2s-24 1.6-35.2 3.2c-46.4 8-88 33.6-116.8 67.2-16 17.6-27.2 38.4-35.2 60.8-8 20.8-12.8 43.2-12.8 67.2 0 24 4.8 46.4 11.2 67.2 8 22.4 19.2 43.2 35.2 60.8 28.8 35.2 70.4 59.2 118.4 67.2 11.2 1.6 22.4 3.2 35.2 3.2s24-1.6 35.2-3.2c46.4-8 88-33.6 118.4-67.2 14.4-17.6 27.2-38.4 35.2-60.8 8-20.8 11.2-43.2 11.2-67.2 0-24-4.8-46.4-12.8-67.2-8-22.4-20.8-43.2-35.2-60.8C635.2 220.8 593.6 195.2 547.2 187.2z"  horiz-adv-x="1024" />

    
    <glyph glyph-name="zhongqi" unicode="&#59057;" d="M320 719.36 320 896 0 640 320 384 320 560.64 880.64 560.64 880.64 15.36 64 15.36 64-128 896-128 921.595069-128C978.151752-128 1024-82.141804 1024-25.577738L1024 616.93774C1024 673.503992 978.147942 719.36 921.632353 719.36L320 719.36Z"  horiz-adv-x="1024" />

    
    <glyph glyph-name="chilun" unicode="&#58889;" d="M841.638649 340.728474c1.775436 14.201443 3.106758 28.625968 3.106758 43.271526 0 14.645558-1.331321 29.069059-3.106758 43.271526l93.865831 73.449849c8.432043 6.656607 10.873652 18.639522 5.325285 28.40391l-88.76158 153.779386c-5.547343 9.54233-17.087167 13.536294-27.072589 9.54233l-110.508883-44.602847c-22.856567 17.530258-47.931662 32.397874-75.003228 43.715641L622.841457 809.169399c-1.997494 10.429537-11.095709 18.639522-22.190395 18.639522l-177.523159 0c-11.095709 0-20.192901-8.209986-21.968337-18.639522l-16.643052-117.609605c-27.072589-11.316743-52.147684-25.962302-75.003228-43.715641l-110.50786 44.602847c-9.985422 3.771907-21.524223 0-27.072589-9.54233l-88.76158-153.779386c-5.547343-9.54233-3.106758-21.524223 5.325285-28.40391l93.643774-73.449849c-1.775436-14.201443-3.106758-28.625968-3.106758-43.271526 0-14.645558 1.331321-29.069059 3.106758-43.271526l-93.643774-73.449849c-8.432043-6.656607-10.873652-18.639522-5.325285-28.40391l88.76158-153.779386c5.547343-9.54233 17.086144-13.536294 27.072589-9.54233l110.508883 44.602847c22.856567-17.530258 47.931662-32.397874 75.003228-43.715641l16.643052-117.609605c1.775436-10.429537 10.873652-18.639522 21.968337-18.639522l177.523159 0c11.095709 0 20.192901 8.209986 21.968337 18.639522l16.643052 117.609605c27.072589 11.316743 52.147684 25.962302 75.003228 43.715641l110.50786-44.602847c9.985422-3.771907 21.525246 0 27.072589 9.54233l88.76158 153.779386c5.547343 9.54233 3.106758 21.524223-5.325285 28.40391L841.638649 340.728474zM511.88846 228.667236c-85.876879 0-155.332764 69.455885-155.332764 155.332764s69.455885 155.332764 155.332764 155.332764c85.876879 0 155.332764-69.455885 155.332764-155.332764S597.765339 228.667236 511.88846 228.667236z"  horiz-adv-x="1024" />

    
    <glyph glyph-name="bangzhu" unicode="&#59066;" d="M626.553 185.212c-7.285-10.23-14.865-20-22.985-28.7 0.07-1.01 0.595-1.875 0.595-2.905l0-92.165c0-25.445-20.64-46.075-46.09-46.075l-92.152 0c-25.45 0-46.08 20.63-46.08 46.075l0 92.165c0 1.03 0.52 1.895 0.587 2.905-8.115 8.7-15.697 18.47-22.987 28.7-68.927 39.82-115.845 113.47-115.845 198.792 0 127.247 103.152 230.399 230.407 230.399 127.24 0 230.399-103.152 230.399-230.399C742.403 298.682 695.478 225.032 626.553 185.212zM488.956-30.713l46.082 0c12.72 0 23.035-10.32 23.035-23.04 0-12.725-10.315-23.045-23.035-23.045l-46.082 0c-12.722 0-23.04 10.32-23.04 23.045C465.916-41.033 476.234-30.713 488.956-30.713zM926.723 337.927l-92.17 0c-31.805 0-46.075 14.975-46.075 46.077 0 31.107 14.27 46.08 46.075 46.08l92.17 0c31.805 0 46.075-14.972 46.075-46.08C972.798 352.901 958.528 337.927 926.723 337.927zM797.103 593.363c-22.495-21.995-58.97-21.995-81.455 0-22.5 21.997-22.5 57.657 0 79.647l40.725 39.827c22.495 21.99 58.97 21.99 81.46 0 22.49-21.997 22.49-57.652 0-79.65L797.103 593.363zM511.999 660.483c-31.817 0-46.082 14.977-46.082 46.077L465.917 798.72c0 31.105 14.265 46.08 46.082 46.08 31.805 0 46.075-14.975 46.075-46.08l0-92.16C558.074 675.461 543.804 660.483 511.999 660.483zM226.892 593.363l-40.727 39.825c-22.497 21.997-22.497 57.652 0 79.65 22.497 21.99 58.965 21.99 81.462 0l40.725-39.827c22.497-21.99 22.497-57.65 0-79.647C285.854 571.368 249.387 571.368 226.892 593.363zM235.514 384.004c0-31.102-14.262-46.082-46.075-46.082L97.282 337.922c-31.815 0-46.082 14.98-46.082 46.082 0 31.107 14.267 46.08 46.082 46.08l92.157 0C221.252 430.084 235.514 415.111 235.514 384.004z"  horiz-adv-x="1024" />

    
    <glyph glyph-name="guanji1" unicode="&#58884;" d="M778.340887 693.2177340000001q45.399015-32.283744 80.70936-73.142857t60.53202-88.275862 38.336946-100.382266 13.115271-107.444335q0-93.824631-35.814778-176.047291t-96.851232-143.259113-143.259113-96.851232-176.047291-35.814778q-92.815764 0-175.038424 35.814778t-143.763547 96.851232-96.851232 143.259113-35.310345 176.047291q0 53.469951 12.610837 104.922167t35.814778 97.860099 57.505419 86.762562 76.673892 72.638424q22.195074 16.141872 47.921182 12.106404t41.86798-25.221675 12.106404-47.416749-25.221675-42.372414q-63.558621-46.407882-97.355665-114.00197t-33.797044-145.276847q0-66.585222 25.221675-125.603941t69.107389-102.904433 102.904433-69.611823 125.603941-25.726108 125.603941 25.726108 102.904433 69.611823 69.611823 102.904433 25.726108 125.603941q0 78.691626-36.319212 148.807882t-101.895567 115.515271q-22.195074 15.133005-26.734975 41.363547t10.593103 48.425616q15.133005 21.186207 41.363547 25.726108t48.425616-10.593103zM519.062069 320.94581300000004q-26.230542 0-44.894581 18.664039t-18.664039 44.894581l0 383.369458q0 26.230542 18.664039 45.399015t44.894581 19.168473q27.239409 0 45.903448-19.168473t18.664039-45.399015l0-383.369458q0-26.230542-18.664039-44.894581t-45.903448-18.664039z"  horiz-adv-x="1024" />

    
    <glyph glyph-name="wenhao" unicode="&#58950;" d="M545.810037-120.537028 355.596857-120.537028 355.596857 69.677175 545.810037 69.677175 545.810037-120.537028ZM768.360715 477.940532c-23.717168-37.436634-74.572416-88.397283-152.188144-153.077398-40.179095-33.31578-65.174372-59.969836-74.871221-80.358189-9.608845-20.284999-14.012132-56.635905-13.233396-108.9729L355.596857 135.532045c-0.494257 24.898063-0.687662 39.98569-0.687662 45.375443 0 55.95643 9.210779 102.019535 27.730575 138.177036 18.422581 36.066427 55.470359 76.635401 111.035886 121.80823 55.461149 45.084824 88.687902 74.677816 99.565646 88.592734 16.755616 22.145369 24.987091 46.549176 24.987091 73.106018 0 37.045731-14.504342 68.694545-44.097334 95.155197-29.698392 26.361391-69.480444 39.49041-119.65724 39.49041-48.313356 0-88.687902-13.815657-121.226992-41.254589-32.432667-27.53717-54.876842-69.480444-67.027579-126.027321l-174.729533 21.756513c4.993734 80.756255 39.297005 149.353586 103.290481 205.796086C258.580267 853.955418 342.460676 882.179226 446.24439 882.179226c109.166305 0 196.090027-28.612665 260.672928-85.652775 64.582901-57.130162 96.823186-123.573433 96.823186-199.423959C803.739481 555.159218 791.882432 515.472334 768.360715 477.940532L768.360715 477.940532zM768.360715 477.940532"  horiz-adv-x="1024" />

    
    <glyph glyph-name="shoudongdiaojie" unicode="&#59031;" d="M1015.148596 102.750475l-5.730389 11.665434C980.254622 173.35705 905.65724 207.330069 842.21365 190.752873c-2.455881-0.61397-2.455881-0.61397-13.609673-3.581493-14.837614-3.888478-22.819227-5.935045-35.81493-9.311882-37.04287-9.721195-74.08574-19.44239-108.570401-28.549615-1.432597-0.409313-1.432597-0.409313-2.762866-0.716299-16.270211-4.297792-31.517138-8.288598-45.536125-12.074748l11.972419 20.568002 8.493255 14.632957-14.4283 8.902568L390.84321 336.366144c-54.950335 34.075347-141.110822 33.052064-195.140202-2.148896l-182.144499-118.598581c-8.083941-5.218747-10.335165-16.065554-5.116419-24.047167 5.218747-8.083941 16.065554-10.335165 24.047167-5.116419l182.246827 118.598581c42.773259 27.833317 114.300789 28.651944 157.790347 1.739582l236.787849-146.841211-9.925852-16.884181c-5.116419-8.697911-12.688718-16.270211-21.591286-22.0006-13.916658-3.78615-25.275107-6.856001-33.768362-9.311882-6.446687-1.841911-17.907465-1.432597-32.438093 1.023284-3.888478 0.61397-7.879285 1.432597-11.972419 2.353553l-38.373139 10.949136c-0.409313 0.102328-0.716299 0.306985-1.125612 0.409313-1.023284 0.306985-1.944239 0.61397-2.967523 0.818627l-71.015889 20.261017c-9.209553 2.660538-18.930748-2.660538-21.488958-11.972419-2.660538-9.209553 2.660538-18.930748 11.972419-21.488958l72.346158-20.670331c6.242031-2.251224 16.270211-5.423404 28.24263-8.595583 4.40012-1.22794 8.80024-2.251224 13.20036-3.274508l17.191166-4.911762c27.730988-7.981613 58.941141-2.660538 84.318577 12.177076 25.479764 6.856001 58.838813 15.656241 98.439892 26.093734 1.432597 0.409313 1.432597 0.409313 2.762866 0.716299 34.484661 9.107225 71.527531 18.82842 108.570401 28.549615 12.995703 3.376836 20.977316 5.525732 35.81493 9.311882 11.051464 2.865194 11.051464 2.865194 13.609673 3.581493 46.252423 12.074748 102.32837-12.58639 125.454582-54.745678L646.766463-75.607874c-29.879884-16.065554-82.374338-21.693614-115.017088-12.279404L346.330369-34.164885c-38.475467 11.153792-101.305086 20.056361-141.315479 20.056361L17.446987-14.108524c-9.618867 0-17.395823-7.776956-17.395823-17.395823s7.776956-17.395823 17.395823-17.395823l187.465574 0 0 0.102328c36.735885 0 96.290996-8.493255 131.594284-18.726092L521.925852-121.246328c41.44299-11.972419 103.351654-5.423404 141.213151 15.04227l344.641951 185.930649 14.837614 7.981613L1015.148596 102.750475zM179.22814 519.840911 179.22814 433.475767c0-9.618867 7.776956-17.395823 17.395823-17.395823 9.618867 0 17.395823 7.776956 17.395823 17.395823l0 86.467473c57.099231 8.390926 100.998101 57.303887 100.998101 116.552014 0 59.248126-43.898871 108.263416-100.998101 116.654342L214.019786 837.365844c0 9.618867-7.776956 17.395823-17.395823 17.395823-9.618867 0-17.395823-7.776956-17.395823-17.395823l0-84.216249c-57.201559-8.390926-101.10043-57.406216-101.10043-116.654342C78.127711 577.247127 122.026581 528.231838 179.22814 519.840911zM196.623963 719.58589c46.150095 0 83.602278-37.247527 83.602278-83.090637 0-45.84311-37.452183-83.090637-83.602278-83.090637-46.252423 0-83.602278 37.247527-83.602278 83.090637C113.021685 682.338363 150.473868 719.58589 196.623963 719.58589zM502.688118 399.195763c-0.204657-0.920955-0.306985-1.944239-0.306985-2.865194l0-81.351054c0-9.618867 7.776956-17.395823 17.395823-17.395823s17.395823 7.776956 17.395823 17.395823l0 81.351054c0 1.023284-0.102328 1.944239-0.204657 2.865194 57.303887 8.18627 101.305086 57.303887 101.305086 116.654342 0 59.248126-43.898871 108.263416-101.10043 116.654342L537.172779 878.604177c0 9.618867-7.776956 17.395823-17.395823 17.395823s-17.395823-7.776956-17.395823-17.395823l0-246.202059c-57.099231-8.390926-100.895773-57.406216-100.895773-116.552014C401.48536 456.601979 445.384231 407.484361 502.688118 399.195763zM519.879285 598.940741c46.150095 0 83.602278-37.247527 83.602278-83.090637s-37.452183-83.090637-83.602278-83.090637-83.602278 37.247527-83.602278 83.090637S473.72919 598.940741 519.879285 598.940741zM825.636454 519.840911l0-245.076446c0-9.618867 7.776956-17.395823 17.395823-17.395823s17.395823 7.776956 17.395823 17.395823L860.4281 519.840911c57.201559 8.390926 101.10043 57.303887 101.10043 116.654342 0 59.248126-43.898871 108.263416-101.10043 116.654342L860.4281 837.365844c0 9.618867-7.776956 17.395823-17.395823 17.395823s-17.395823-7.776956-17.395823-17.395823l0-84.318577c-57.099231-8.390926-100.998101-57.406216-100.998101-116.552014C724.638353 577.247127 768.537224 528.231838 825.636454 519.840911zM843.134606 719.58589c46.150095 0 83.602278-37.247527 83.602278-83.090637 0-45.84311-37.452183-83.090637-83.602278-83.090637-46.252423 0-83.602278 37.247527-83.602278 83.090637C759.532327 682.338363 796.984511 719.58589 843.134606 719.58589z"  horiz-adv-x="1024" />

    
    <glyph glyph-name="help" unicode="&#58919;" d="M637.006 224.461c-12.251 0-23.871 7.136-29.017 19.071-6.915 16.009 0.474 34.606 16.451 41.49 49.541 21.439 101.167 73.223 134.731 135.236 28.86 53.204 34.89 116.701 34.89 160.622 0.032 134.226-131.794 251.969-282.060 251.969-150.297 0-282.123-116.828-282.123-250.011 0-42.911 4.768-104.229 27.565-152.571 34.291-72.875 95.009-122.164 136.562-142.246 15.724-7.578 22.292-26.46 14.682-42.184-7.641-15.661-26.555-22.197-42.153-14.682-67.981 32.87-131.668 98.83-166.211 172.179-27.754 58.919-33.564 130.121-33.564 179.473 0 166.843 161.317 313.193 345.242 313.193 183.893 0 345.21-147.235 345.21-315.088 0-51.246-7.357-125.921-42.532-190.713-39.974-73.823-103.282-136.341-165.201-163.117-4.042-1.768-8.304-2.621-12.472-2.621zM384.374-17.625c-17.429 0-31.575 14.114-31.575 31.575v245.686c0 17.461 14.146 31.575 31.575 31.575s31.575-14.114 31.575-31.575v-245.686c0-17.429-14.114-31.575-31.575-31.575zM636.974-21.256c-17.461 0-31.575 14.114-31.575 31.575v245.717c0 17.461 14.114 31.575 31.575 31.575s31.575-14.114 31.575-31.575v-245.717c-0-17.461-14.114-31.575-31.575-31.575zM510.421-127.98c-86.895 0-157.591 66.466-157.591 148.182 0 17.461 14.146 31.575 31.575 31.575s31.575-14.114 31.575-31.575c0-46.889 42.374-85.032 94.441-85.032 52.099 0 94.473 38.143 94.473 85.032 0 17.461 14.114 31.575 31.575 31.575s31.575-14.114 31.575-31.575c-0.032-81.685-70.728-148.182-157.623-148.182zM618.566 11.898h-225.951c-17.429 0-31.575 14.114-31.575 31.575s14.146 31.575 31.575 31.575h225.951c17.461 0 31.575-14.114 31.575-31.575s-14.114-31.575-31.575-31.575zM636.69 136.904h-252.569c-17.429 0-31.575 14.114-31.575 31.575s14.146 31.575 31.575 31.575h252.569c17.461 0 31.575-14.114 31.575-31.575s-14.114-31.575-31.575-31.575zM513.831 451.234l-16.293 3.6 17.114 60.782-8.557-30.375-13.577 27.281c-9.978-5.999-12.062-15.093-12.156-15.472 1.673 9.788 4.357 25.892 19.198 36.311 6.031 4.231 16.040 8.557 29.712 7.168 42.911 0.979 77.517 33.659 77.517 73.696 0 40.637-35.68 73.696-79.538 73.696-43.1 0-79.506-35.175-79.506-76.791h-63.15c0 75.843 65.329 139.941 142.656 139.941 78.685 0 142.688-61.382 142.688-136.846 0-71.233-57.025-129.963-129.584-136.31-2.4-6.947-6.536-13.988-14.619-19.134l-11.904-7.546zM480.457 512.742h63.15v-111.365h-63.15v111.365zM479.478 330.364c-0-17.979 14.575-32.554 32.554-32.554s32.554 14.575 32.554 32.554c0 17.979-14.575 32.554-32.554 32.554-17.979 0-32.554-14.575-32.554-32.554z"  horiz-adv-x="1024" />

    
    <glyph glyph-name="wenhao1" unicode="&#59101;" d="M567.4496 133.2736 391.7824 133.2736c-0.4608 25.2416-0.7168 40.6528-0.7168 46.1824 0 56.9344 9.4208 103.7824 28.2624 140.544 18.8416 36.7104 56.4736 78.08 112.9984 124.0064 56.4736 45.9264 90.2656 76.032 101.2736 90.2656 16.9984 22.4768 25.4976 47.3088 25.4976 74.3936 0 37.632-15.0528 69.888-45.1072 96.768-30.1056 26.88-70.6048 40.2944-121.6 40.2944-49.152 0-90.2656-14.0288-123.2896-42.0352-33.0752-28.0576-55.808-70.7584-68.1984-128.1536l-177.7152 22.016c5.0176 82.2272 40.0896 152.0128 105.0624 209.408C293.12 864.4096 378.4704 893.0816 484.096 893.0816c111.1552 0 199.5264-29.0304 265.216-87.1424 65.6896-58.112 98.5088-125.696 98.5088-202.9056 0-42.7008-12.0832-83.1488-36.1472-121.2416-24.1152-38.144-75.6736-90.0096-154.6752-155.6992-40.8576-33.9968-66.2528-61.3376-76.1344-81.9712C570.9824 223.488 566.528 186.5216 567.4496 133.2736zM391.7824-127.1296l0 193.5872 193.5872 0 0-193.5872L391.7824-127.1296z"  horiz-adv-x="1024" />

    
    <glyph glyph-name="caozuo-shoudong" unicode="&#58914;" d="M624.77039-40.682305c-88.871073 0-165.389818 35.800367-246.368131 74.002434l-20.817118 9.607822c-126.615723 59.132772-218.003106 107.972107-218.917941 108.314914-53.414537 24.933879-76.861552 89.672322-51.583843 144.344503 17.61417 37.972846 56.388265 62.793138 98.021478 62.793138 16.012695 0 31.453363-3.545756 45.979194-10.29446l100.19498-49.52495c-23.333428 63.479777-66.796312 177.055508-102.824877 239.963256-30.423917 53.299927-59.7048 73.086575-85.782735 90.357938-17.156752 11.666714-33.741475 22.532179-46.323025 41.061184-16.241916 24.362874-20.473287 53.528124-11.666714 80.064501 8.349155 25.163099 27.679409 45.064358 52.613288 54.214762a76.522838 76.522838 0 0 0 25.735128 4.460592c52.04126 0 110.373807-47.237861 149.83454-86.812182 21.846564-21.846564 44.836161-53.986565 65.194838-85.210707 10.17985 32.025391 37.172621 56.616462 67.711148 67.711148 10.29446 3.660366 20.930705 5.719258 31.91078 5.719258 27.79402 0 53.642734-12.352329 70.914096-32.940226 10.865465 18.529005 27.79402 32.482809 48.152697 39.803541 10.29446 3.660366 20.930705 5.719258 31.911804 5.719258 36.257785 0 69.312622-21.274536 84.181261-53.986565 8.463766 6.862291 18.071587 12.352329 26.420742 15.440668 9.150404 3.316535 18.643616 5.03262 28.251438 5.032619 34.770921 0 65.537645-20.587897 76.746941-51.583842 4.689812-12.69616 112.547309-310.762743 102.139262-402.951375-11.094686-95.733365-34.999119-193.869453-192.382589-251.057942-44.493354-16.242939-86.926792-24.249287-129.246642-24.249287zM184.949292 318.575942c-26.764574 0-50.669006-15.09786-61.878302-39.803542-16.127306-34.656311-1.486864-75.832106 33.169447-91.844801 1.944282-1.029446 92.416829-49.411363 217.888496-107.972107l20.817118-9.607822c80.407308-37.744649 149.71993-70.227458 229.555209-70.227458 37.401842 0 75.602885 7.091512 115.978455 21.846565C876.817869 70.606337 896.604518 149.069363 906.898978 239.31269c8.006348 68.740594-69.427232 300.926724-100.080369 384.879788-5.375427 14.755052-21.502733 25.163099-39.45971 25.163099-5.03262 0-10.17985-0.686638-14.755052-2.51631-8.463766-3.202948-19.787672-12.352329-25.04849-18.186198l17.49956-48.152696c3.660366-10.29446-1.486864-21.846564-11.781324-25.505907-10.29446-3.660366-21.846564 1.486864-25.505907 11.781324l-29.509081 80.979336c-7.54893 20.930705-27.679409 34.999119-49.982368 34.999119-6.290263 0-12.238742-1.144056-18.071588-3.316536-13.381775-4.803399-23.904433-14.525831-29.966498-27.336602-6.062066-12.81077-6.519484-27.107381-1.716085-40.603766l11.322883-31.339776c3.660366-10.29446-1.486864-21.846564-11.781324-25.505907-10.29446-3.660366-21.846564 1.486864-25.505907 11.781324l-25.048489 68.625984c-7.66354 20.702508-27.79402 34.885532-50.096979 34.885532-6.290263 0-12.238742-1.144056-18.071587-3.316536-25.048489-9.150404-56.960293-37.744649-41.97602-78.920444l18.186198-49.982368c3.660366-9.950629-1.029446-20.817118-10.637268-25.048489-9.493212-4.345981-20.817118-0.457418-25.620518 9.035794-0.686638 1.144056-64.280002 121.125685-114.49159 171.337273-55.129598 55.129598-106.142435 83.266425-133.821845 73.201186-13.610996-5.03262-24.019043-15.440667-28.594245-29.166273-4.803399-14.755052-2.173502-31.339776 7.091512-45.40819 8.006348-11.781324 20.13048-20.13048 35.113729-29.966498C191.240579 643.750929 227.612974 619.388055 262.84029 557.968194c53.414537-93.331665 119.524211-284.914028 122.497939-292.805766 2.63092-7.54893 0.457418-16.127306-5.719259-21.274536-5.947456-5.260817-14.755052-6.404873-21.960151-2.859118l-143.772474 70.914097c-8.806573 4.460592-18.757203 6.633071-28.937053 6.633071z"  horiz-adv-x="1024" />

    
    <glyph glyph-name="rizhi11" unicode="&#58881;" d="M803.776-128h-582.592c-73.984 0-134.144 60.16-134.144 134.208v40.832c0 15.616 12.608 28.224 28.224 28.224s28.224-12.608 28.224-28.224v-40.832c0-42.816 34.88-77.696 77.696-77.696h582.592c42.816 0 77.696 34.88 77.696 77.696v184.96c0 15.616 12.608 28.224 28.224 28.224 15.616 0 28.224-12.608 28.224-28.224v-184.96c0.064-73.984-60.16-134.208-134.144-134.208v0zM115.264 188.16c-15.616 0-28.224 12.608-28.224 28.224l0 165.952c0 15.616 12.608 28.224 28.224 28.224s28.224-12.608 28.224-28.224v-165.952c0-15.616-12.608-28.224-28.224-28.224v0zM909.696 379.456c-15.616 0-28.224 12.608-28.224 28.224v181.12c0 42.816-34.88 77.696-77.696 77.696h-582.592c-42.816 0-77.696-34.88-77.696-77.696v-36.992c0-15.616-12.608-28.224-28.224-28.224s-28.224 12.608-28.224 28.224l0 36.992c0 73.984 60.16 134.208 134.144 134.208h582.592c73.984 0 134.208-60.16 134.208-134.208v-181.056c0-15.616-12.672-28.288-28.288-28.288v0zM193.536 438.848h-165.376c-15.616 0-28.224 12.608-28.224 28.224s12.608 28.224 28.224 28.224h165.376c15.616 0 28.224-12.608 28.224-28.224 0.064-15.616-12.608-28.224-28.224-28.224v0zM193.536 103.36h-165.376c-15.616 0-28.224 12.608-28.224 28.224 0 15.616 12.608 28.224 28.224 28.224h165.376c15.616 0 28.224-12.608 28.224-28.224 0.064-15.552-12.608-28.224-28.224-28.224v0zM691.712 438.848h-337.28c-15.616 0-28.224 12.608-28.224 28.224s12.608 28.224 28.224 28.224h337.344c15.616 0 28.224-12.608 28.224-28.224-0-15.616-12.672-28.224-28.288-28.224v0zM691.712 271.104h-337.28c-15.616 0-28.224 12.608-28.224 28.224s12.608 28.224 28.224 28.224h337.344c15.616 0 28.224-12.608 28.224-28.224-0-15.616-12.672-28.224-28.288-28.224v0zM691.712 103.36h-337.28c-15.616 0-28.224 12.608-28.224 28.224 0 15.616 12.608 28.224 28.224 28.224h337.344c15.616 0 28.224-12.608 28.224-28.224-0-15.552-12.672-28.224-28.288-28.224v0zM913.792 185.728c-61.632 0-111.808 50.176-111.808 111.808 0 61.696 50.176 111.872 111.808 111.872 61.696 0 111.808-50.176 111.808-111.872 0.064-61.696-50.112-111.808-111.808-111.808v0zM913.792 352.896c-30.528 0-55.296-24.832-55.296-55.424 0-30.528 24.768-55.296 55.296-55.296 30.528 0 55.36 24.768 55.36 55.296 0 30.592-24.832 55.424-55.36 55.424v0zM913.792 352.896z"  horiz-adv-x="1025" />

    
    <glyph glyph-name="yonghu" unicode="&#58954;" d="M608.691179 327.326233H418.543492c-166.001755 0-298.804387-135.820362-298.804387-301.822117v-18.10945c0-69.419046 132.802632-69.419046 295.786657-69.419045h190.148711c162.984025 0 295.785633 3.01773 295.785633 69.419045v18.10945c3.018753 166.001755-129.783879 301.822117-292.768927 301.822117zM279.7054 595.948203c0-126.765125 102.619192-232.403071 232.40307-232.403071s232.403071 102.620215 232.403071 232.403071c0 129.783879-105.637945 232.404094-232.403071 232.404094s-232.403071-105.638969-232.40307-232.404094z"  horiz-adv-x="1024" />

    
    <glyph glyph-name="yonghu1" unicode="&#59033;" d="M604.672-79.36h-185.856c-174.592 0-312.832 0-312.832 88.576v18.432c0 169.984 140.288 308.224 312.832 308.224h185.856c172.544 0 312.832-138.24 312.832-308.224v-18.432c0-88.576-144.896-88.576-312.832-88.576z m-101.888 438.784c-136.704 0-247.808 109.568-247.808 244.224 0 134.656 111.104 244.224 247.808 244.224s247.808-109.568 247.808-244.224-111.104-244.224-247.808-244.224z"  horiz-adv-x="1024" />

    
    <glyph glyph-name="chilun1" unicode="&#58908;" d="M661.7 384.8c0 41.1-14.5 76.2-43.6 105.3-29.1 29.1-64.2 43.6-105.3 43.6-41.1 0-76.2-14.5-105.3-43.6-29.1-29.1-43.6-64.2-43.6-105.3s14.5-76.2 43.6-105.3c29.1-29.1 64.2-43.6 105.3-43.6 41.1 0 76.2 14.5 105.3 43.6 29.1 29 43.6 64.1 43.6 105.3z m297.9 63.4V319c0-4.7-1.6-9.1-4.7-13.4-3.1-4.3-7-6.8-11.6-7.6l-107.6-16.3c-7.4-20.9-14.9-38.6-22.7-52.9 13.6-19.4 34.3-46.2 62.3-80.3 3.9-4.7 5.8-9.5 5.8-14.5s-1.7-9.5-5.2-13.4c-10.5-14.4-29.7-35.3-57.6-62.8-27.9-27.5-46.2-41.3-54.7-41.3-4.7 0-9.7 1.7-15.1 5.2l-80.3 62.8c-17.1-8.9-34.7-16.3-52.9-22.1-6.2-52.8-11.8-88.8-16.9-108.2-2.7-10.9-9.7-16.3-20.9-16.3H448.2c-5.4 0-10.2 1.6-14.3 4.9-4.1 3.3-6.3 7.5-6.7 12.5l-16.3 107.1c-19 6.2-36.5 13.4-52.4 21.5l-82-62.3c-3.9-3.5-8.7-5.2-14.5-5.2-5.4 0-10.3 2.1-14.5 6.4-48.9 44.2-80.9 76.8-96 97.7-2.7 3.9-4.1 8.3-4.1 13.4 0 4.7 1.6 9.1 4.7 13.4 5.8 8.1 15.7 21 29.7 38.7 14 17.6 24.4 31.3 31.4 41-10.5 19.4-18.4 38.6-23.9 57.6L82.8 300.4c-5 0.8-9.1 3.2-12.2 7.3-3.1 4.1-4.7 8.6-4.7 13.7V450.5c0 4.7 1.6 9.1 4.7 13.4 3.1 4.3 6.8 6.8 11.1 7.6l108.2 16.3c5.4 17.8 13 35.7 22.7 53.5-15.5 22.1-36.3 48.9-62.3 80.3-3.9 4.7-5.8 9.3-5.8 14 0 3.9 1.7 8.3 5.2 13.4 10.1 14 29.2 34.8 57.3 62.5 28.1 27.7 46.4 41.6 55 41.6 5 0 10.1-1.9 15.1-5.8l80.3-62.3c17.1 8.9 34.7 16.3 52.9 22.1 6.2 52.8 11.8 88.8 16.9 108.2 2.7 10.9 9.7 16.3 20.9 16.3h129.2c5.4 0 10.2-1.6 14.3-4.9 4.1-3.3 6.3-7.5 6.7-12.5l16.3-107.1c19-6.2 36.5-13.4 52.4-21.5l82.6 62.3c3.5 3.5 8.1 5.2 14 5.2 5 0 9.9-1.9 14.5-5.8 50-46.2 82-79.1 96-98.9 2.7-3.1 4.1-7.4 4.1-12.8 0-4.7-1.6-9.1-4.7-13.4-5.8-8.1-15.7-21-29.7-38.7-14-17.6-24.4-31.3-31.4-41 10.1-19.4 18-38.4 23.9-57l106.5-16.3c5-0.8 9.1-3.2 12.2-7.3 3-4.1 4.6-8.7 4.6-13.7z"  horiz-adv-x="1024" />

    
    <glyph glyph-name="update" unicode="&#59100;" d="M512 821l-403.1-423.1h253.1v-270.9h300v270.9h253.1l-403.1 423.1zM612 447.9v-270.9h-200v270.9h-186.4l286.4 300.6 286.4-300.6h-186.4zM362 87h300v-50h-300zM362-3h300v-50h-300z"  horiz-adv-x="1024" />

    
    <glyph glyph-name="zhiding" unicode="&#59234;" d="M203.3664 697.344h583.68v-48.5376h-583.68zM495.2064 633.0368L460.8 598.6304 219.9552 357.9904l34.4064-34.4064 216.4736 216.2688v-441.5488h48.5376V539.8528l216.4736-216.2688 34.4064 34.4064-240.64 240.64z"  horiz-adv-x="1024" />

    
    <glyph glyph-name="shangyi" unicode="&#59019;" d="M776.40192 508.75392l-241.93024 233.76896c-12.43648 12.04224-32.50688 12.04224-44.86656 0L247.6032 508.75392c-12.38528-12.01152-12.38528-31.4624 0-43.37152a32.19456 32.19456 0 0 1 22.45632-9.00096 32.1536 32.1536 0 0 1 22.40512 9.00096L480.3072 646.80448v-599.72096c0-16.93696 14.17728-30.63808 31.70304-30.63808 17.536 0 31.78496 13.70624 31.78496 30.63808V646.80448l187.68896-181.42208c12.43648-12.01152 32.50688-12.01152 44.91264 0 12.38528 11.91424 12.38528 31.36512 0.00512 43.37152z"  horiz-adv-x="1024" />

    
    <glyph glyph-name="jinyong" unicode="&#58890;" d="M983.74341 583.295751a510.271362 510.271362 0 0 1-109.695863 162.751796A510.271362 510.271362 0 0 1 512 895.99936a510.271362 510.271362 0 0 1-362.047547-149.951813A510.271362 510.271362 0 0 1 0.00064 384a510.207362 510.207362 0 0 1 149.951813-362.047547A510.271362 510.271362 0 0 1 512-127.99936a510.271362 510.271362 0 0 1 362.047547 149.951813A510.271362 510.271362 0 0 1 1023.99936 384a508.799364 508.799364 0 0 1-40.25595 199.295751z m-57.087928-374.463532a448.639439 448.639439 0 0 0-96.44788-143.039821A448.639439 448.639439 0 0 0 512-66.047437a448.639439 448.639439 0 0 0-318.207602 131.839835A448.639439 448.639439 0 0 0 61.952563 384a448.639439 448.639439 0 0 0 131.839835 318.207602A448.575439 448.575439 0 0 0 512 834.047437a448.575439 448.575439 0 0 0 318.207602-131.839835A448.639439 448.639439 0 0 0 962.047437 384c0-60.799924-11.903985-119.67985-35.391955-175.167781zM767.99968 420.607954H256.00032c-22.015972 0-36.607954-14.591982-36.607954-36.607954s14.591982-36.607954 36.607954-36.607954h511.99936c22.015972 0 36.607954 14.591982 36.607954 36.607954s-14.591982 36.607954-36.607954 36.607954z"  horiz-adv-x="1024" />

    
    <glyph glyph-name="web" unicode="&#58880;" d="M741.304 607.2c0-8.88 7.224-16.104 16.096-16.104 8.88 0 16.104 7.224 16.104 16.104V718.704c0 33.472-27.232 60.696-60.704 60.696H132.6c-33.472 0-60.704-27.232-60.704-60.696V272.4c0-33.472 27.232-60.696 60.704-60.696h67c8.88 0 16.104 7.224 16.104 16.096 0 8.88-7.224 16.104-16.104 16.104h-67a28.536 28.536 0 0 0-28.504 28.504v385.6h637.2V607.2z m-8.008 83h-629.2v28.504a28.536 28.536 0 0 0 28.504 28.504H712.8a28.536 28.536 0 0 0 28.504-28.504v-28.504h-8.008zM891.4 556.296H311.2c-33.472 0-60.704-27.232-60.704-60.696v-446.304c0-33.472 27.232-60.696 60.704-60.696h580.2c33.472 0 60.704 27.232 60.704 60.696V495.6c0 33.472-27.232 60.696-60.704 60.696z m28.4-129.496v-377.6a28.528 28.528 0 0 0-28.504-28.496H311.2a28.536 28.536 0 0 0-28.504 28.496v377.6h4v4h3.928l-0.024 4H919.808v-8z m0 48.2h-4v-4h-3.92l0.024-4H282.6v28.496a28.536 28.536 0 0 0 28.504 28.504h580.2a28.536 28.536 0 0 0 28.504-28.504v-20.496z"  horiz-adv-x="1024" />

    
    <glyph glyph-name="peizhi" unicode="&#58902;" d="M911.1 207H578.4c-7.5 0-13.7 6-13.8 13.5v32c0.1 7.5 6.2 13.6 13.8 13.5h332.7c7.5 0 13.6-6 13.7-13.5v-32c-0.1-7.5-6.2-13.6-13.7-13.5z m0-118.2H578.4c-7.5 0-13.7 6-13.8 13.5v32c0.1 7.5 6.2 13.6 13.8 13.5h332.7c7.5 0 13.6-6 13.7-13.5v-31.9c-0.1-7.5-6.2-13.6-13.7-13.6z m0-118.2H578.4c-7.5 0-13.7 6-13.8 13.5v32c0.1 7.5 6.2 13.6 13.8 13.5h332.7c7.5 0 13.6-6 13.7-13.5v-31.9c-0.1-7.5-6.2-13.5-13.7-13.6zM504.6 271.2v-60c-96.9 0-175.8 77.6-175.8 173s78.8 173 175.8 173c96.9 0 175.8-77.6 175.8-173 0-20.2-3.5-40.2-10.5-59.1h-67.6c11.2 17.7 17.2 38.2 17.2 59.1 0 62.2-51.6 112.9-114.9 112.9-63.2 0-114.8-50.7-114.8-112.9 0-62.3 51.5-113 114.8-113z m-14.5-240.4c3.8 0.1 7.5-1.4 10.3-4.1 2.7-2.7 4.3-6.4 4.3-10.2V-15c-0.1-7.9-6.5-14.3-14.5-14.3h-57.3c-27.3-0.3-50 21-51.5 48.2l-8.4 60.7a342.23 342.23 0 0 0-70.7 40l-57.4-23.1c-24.4-12.4-54.2-3.8-68.2 19.7l-72 122.3c-13.8 23.4-6.4 53.6 16.7 68l49.2 37.5c-3.6 26.7-3.6 53.7 0 80.3l-49.1 37.5c-23 14.3-30.4 44.3-16.8 67.7L176.6 652c14 23.5 43.7 32.1 68.1 19.8l57.5-23.1c21.8 16.2 45.6 29.6 70.7 40l8.4 60.6c1.4 27.3 24.1 48.6 51.4 48.3h143.7c27.6 0 50.1-21.1 51.4-48.2l8.4-60.7c25.1-10.4 48.9-23.9 70.8-40l57.5 23c24.4 12.2 54.1 3.7 68.1-19.7l71.7-122.4c13.8-23.4 6.5-53.5-16.6-68l-49.2-37.4c3.5-26.6 3.5-53.7 0-80.3l24.8-18.9h-89.8l2.1 11.3c6 31.5 6 64 0 95.6l-3.3 17.8 75 57.1-64.1 109.4-86.8-36.7-14.2 11.9c-25 20.7-53.5 36.9-84.2 47.6l-17.3 6.2-12.8 92.4H441.2l-12.8-92.4-17.3-6.2c-30.7-10.8-59.2-27-84.3-47.7l-14.1-11.7-87.5 35.2L161.8 507l75-57.1-3.3-17.9c-3-15.7-4.5-31.7-4.6-47.7 0.1-16 1.6-32.1 4.5-47.8l3.2-17.9-74.9-57.1L226 152.1l86.7 36.7L327 177c25-20.7 53.5-36.9 84.2-47.6l17.3-6.2 12.8-92.4h48.8z"  horiz-adv-x="1024" />

    
    <glyph glyph-name="jigouwangluoduankouzizhufuwu" unicode="&#59081;" d="M600.928 691.369c14.147 0 25.657-11.292 25.657-25.171v-68.194h94.001c19.073 0 34.59-15.226 34.59-33.942V488.864h52.572c15.534 0 28.172-12.374 28.172-27.583v-358.328c0-15.209-12.638-27.583-28.172-27.583H208.093c-15.535 0-28.173 12.374-28.173 27.583V461.28c0 15.209 12.638 27.583 28.173 27.583h52.571V564.061c0 18.716 15.517 33.942 34.59 33.942h93.596v68.194c0 13.879 11.509 25.171 25.652 25.171l186.426 0.001m0 36H414.502c-33.955 0-61.652-27.447-61.652-61.171v-32.194h-57.596c-38.911 0-70.59-31.389-70.59-69.942v-39.198h-16.571c-35.417 0-64.173-28.493-64.173-63.583v-358.328c0-35.091 28.835-63.583 64.173-63.583h599.655c35.332 0 64.172 28.492 64.172 63.583V461.28c0 35.09-28.84 63.583-64.172 63.583h-16.572v39.198c0 38.553-31.685 69.942-70.59 69.942h-58.001v32.194c0 33.725-27.618 61.172-61.657 61.172zM269.92 378.08h60v-200h-60v200zM408.586 378.08h60v-200h-60v200zM547.253 378.08h60v-200h-60v200zM685.92 378.08h60v-200h-60v200z"  horiz-adv-x="1024" />

    


  </font>
</defs>
</svg>
